# xmcd CD database file
#
# Track frame offsets:
#	150
#	16090
#	31175
#	49980
#	68207
#	92287
#	103552
#	121985
#	136330
#	157277
#	173052
#	194450
#	211870
#	230940
#	241412
#	261505
#	281557
#	297952
#	321345
#	340692
#
# Disc length: 4722 seconds
#
# Revision: 0
# Processed by: cddbd v1.5.1PL0 Copyright (c) Steve Scherf et al.
# Submitted via: CDex 1.51
#
DISCID=29127014
DTITLE=Daddy X - Organic Soul
DYEAR=2004
DGENRE=Rock
TTITLE0=The Great Escape
TTITLE1=Dyin Breath
TTITLE2=Higher Than High
TTITLE3=Irie Feeling
TTITLE4=Settin Sun
TTITLE5=Old School Shit
TTITLE6=Everybody Must Get Stoned
TTITLE7=Grow Your Own
TTITLE8=One Man Standing
TTITLE9=Praise Jah
TTITLE10=Peaceful Day
TTITLE11=Around The world
TTITLE12=Wicked And The Righteous
TTITLE13=Area 51
TTITLE14=Pleasure To Burn
TTITLE15=Stoney Vibrations
TTITLE16=Get Up
TTITLE17=Sky Blue
TTITLE18=Anna Rose
TTITLE19=Hold Tight (Japanese Bonus Track)
EXTD=YEAR: 2004
EXTT0=
EXTT1=
EXTT2=
EXTT3=
EXTT4=
EXTT5=
EXTT6=
EXTT7=
EXTT8=
EXTT9=
EXTT10=
EXTT11=
EXTT12=
EXTT13=
EXTT14=
EXTT15=
EXTT16=
EXTT17=
EXTT18=
EXTT19=
PLAYORDER=
